<svg xmlns="http://www.w3.org/2000/svg" viewBox="0 0 100 100">
  <defs>
    <linearGradient id="dragonGrad" x1="0%" y1="0%" x2="100%" y2="100%">
      <stop offset="0%" stop-color="#d4a5a5"/>
      <stop offset="100%" stop-color="#6b7c6b"/>
    </linearGradient>
  </defs>
  <!-- Minimalist dragon head silhouette -->
  <path fill="url(#dragonGrad)" d="
    M50 10
    C55 10 60 15 62 20
    C65 18 70 20 72 25
    C75 28 73 35 70 38
    L75 42 L70 48
    C73 50 75 55 73 60
    L65 58 L68 65
    C65 72 58 78 50 85
    C42 78 35 72 32 65
    L35 58 L27 60
    C25 55 27 50 30 48
    L25 42 L30 38
    C27 35 25 28 28 25
    C30 20 35 18 38 20
    C40 15 45 10 50 10
    Z
  "/>
  <!-- Eye -->
  <circle cx="45" cy="32" r="3" fill="#1a1a1a"/>
  <circle cx="55" cy="32" r="3" fill="#1a1a1a"/>
</svg>